<svg xmlns="http://www.w3.org/2000/svg" xmlns:xlink="http://www.w3.org/1999/xlink" width="1263" height="756" contentStyleType="text/css" preserveAspectRatio="none" style="width:1263px;height:756px;background:#fff" version="1.1" viewBox="0 0 1263 756" zoomAndPan="magnify"><g><rect width="145" height="36.488" x="590" y="358.93" fill="#F1F1F1" rx="12.5" ry="12.5" style="stroke:#181818;stroke-width:1.5"/><text x="600" y="382.465" fill="#000" font-family="sans-serif" font-size="14" lengthAdjust="spacing" textLength="121">EntityInvolvement</text><rect width="182" height="36.488" x="785" y="302.441" fill="#F1F1F1" rx="12.5" ry="12.5" style="stroke:#181818;stroke-width:1.5"/><text x="795" y="325.977" fill="#000" font-family="sans-serif" font-size="14" lengthAdjust="spacing" textLength="162">EntityActiveInvolvement</text><path fill="none" d="M735,377.1738 L745,377.1738 C760,377.1738 760,320.6855 775,320.6855 L785,320.6855" style="stroke:#181818;stroke-width:1"/><rect width="213" height="36.488" x="785" y="358.93" fill="#F1F1F1" rx="12.5" ry="12.5" style="stroke:#181818;stroke-width:1.5"/><text x="795" y="382.465" fill="#000" font-family="sans-serif" font-size="14" lengthAdjust="spacing" textLength="193">EntityPermissiveInvolvement</text><rect width="150" height="36.488" x="1048" y="20" fill="#F1F1F1" rx="12.5" ry="12.5" style="stroke:#181818;stroke-width:1.5"/><text x="1058" y="43.535" fill="#000" font-family="sans-serif" font-size="14" lengthAdjust="spacing" textLength="130">OptingInToProcess</text><path fill="none" d="M998,377.1738 L1008,377.1738 C1023,377.1738 1023,38.2441 1038,38.2441 L1048,38.2441" style="stroke:#181818;stroke-width:1"/><rect width="180" height="36.488" x="1048" y="76.488" fill="#F1F1F1" rx="12.5" ry="12.5" style="stroke:#181818;stroke-width:1.5"/><text x="1058" y="100.023" fill="#000" font-family="sans-serif" font-size="14" lengthAdjust="spacing" textLength="160">OptingOutFromProcess</text><path fill="none" d="M998,377.1738 L1008,377.1738 C1023,377.1738 1023,94.7324 1038,94.7324 L1048,94.7324" style="stroke:#181818;stroke-width:1"/><rect width="156" height="36.488" x="1048" y="132.977" fill="#F1F1F1" rx="12.5" ry="12.5" style="stroke:#181818;stroke-width:1.5"/><text x="1058" y="156.512" fill="#000" font-family="sans-serif" font-size="14" lengthAdjust="spacing" textLength="136">ObjectingToProcess</text><path fill="none" d="M998,377.1738 L1008,377.1738 C1023,377.1738 1023,151.2207 1038,151.2207 L1048,151.2207" style="stroke:#181818;stroke-width:1"/><rect width="194" height="36.488" x="1048" y="189.465" fill="#F1F1F1" rx="12.5" ry="12.5" style="stroke:#181818;stroke-width:1.5"/><text x="1058" y="213" fill="#000" font-family="sans-serif" font-size="14" lengthAdjust="spacing" textLength="174">WithdrawingFromProcess</text><path fill="none" d="M998,377.1738 L1008,377.1738 C1023,377.1738 1023,207.709 1038,207.709 L1048,207.709" style="stroke:#181818;stroke-width:1"/><rect width="155" height="36.488" x="1048" y="245.953" fill="#F1F1F1" rx="12.5" ry="12.5" style="stroke:#181818;stroke-width:1.5"/><text x="1058" y="269.488" fill="#000" font-family="sans-serif" font-size="14" lengthAdjust="spacing" textLength="135">ChallengingProcess</text><path fill="none" d="M998,377.1738 L1008,377.1738 C1023,377.1738 1023,264.1973 1038,264.1973 L1048,264.1973" style="stroke:#181818;stroke-width:1"/><rect width="203" height="36.488" x="1048" y="302.441" fill="#F1F1F1" rx="12.5" ry="12.5" style="stroke:#181818;stroke-width:1.5"/><text x="1058" y="325.977" fill="#000" font-family="sans-serif" font-size="14" lengthAdjust="spacing" textLength="183">ChallengingProcessOutput</text><path fill="none" d="M998,377.1738 L1008,377.1738 C1023,377.1738 1023,320.6855 1038,320.6855 L1048,320.6855" style="stroke:#181818;stroke-width:1"/><rect width="145" height="36.488" x="1048" y="358.93" fill="#F1F1F1" rx="12.5" ry="12.5" style="stroke:#181818;stroke-width:1.5"/><text x="1058" y="382.465" fill="#000" font-family="sans-serif" font-size="14" lengthAdjust="spacing" textLength="125">CorrectingProcess</text><path fill="none" d="M998,377.1738 L1008,377.1738 C1023,377.1738 1023,377.1738 1038,377.1738 L1048,377.1738" style="stroke:#181818;stroke-width:1"/><rect width="193" height="36.488" x="1048" y="415.418" fill="#F1F1F1" rx="12.5" ry="12.5" style="stroke:#181818;stroke-width:1.5"/><text x="1058" y="438.953" fill="#000" font-family="sans-serif" font-size="14" lengthAdjust="spacing" textLength="173">CorrectingProcessOutput</text><path fill="none" d="M998,377.1738 L1008,377.1738 C1023,377.1738 1023,433.6621 1038,433.6621 L1048,433.6621" style="stroke:#181818;stroke-width:1"/><rect width="184" height="36.488" x="1048" y="471.906" fill="#F1F1F1" rx="12.5" ry="12.5" style="stroke:#181818;stroke-width:1.5"/><text x="1058" y="495.441" fill="#000" font-family="sans-serif" font-size="14" lengthAdjust="spacing" textLength="164">ReversingProcessEffects</text><path fill="none" d="M998,377.1738 L1008,377.1738 C1023,377.1738 1023,490.1504 1038,490.1504 L1048,490.1504" style="stroke:#181818;stroke-width:1"/><rect width="187" height="36.488" x="1048" y="528.394" fill="#F1F1F1" rx="12.5" ry="12.5" style="stroke:#181818;stroke-width:1.5"/><text x="1058" y="551.93" fill="#000" font-family="sans-serif" font-size="14" lengthAdjust="spacing" textLength="167">ReversingProcessOutput</text><path fill="none" d="M998,377.1738 L1008,377.1738 C1023,377.1738 1023,546.6387 1038,546.6387 L1048,546.6387" style="stroke:#181818;stroke-width:1"/><rect width="191" height="36.488" x="1048" y="584.883" fill="#F1F1F1" rx="12.5" ry="12.5" style="stroke:#181818;stroke-width:1.5"/><text x="1058" y="608.418" fill="#000" font-family="sans-serif" font-size="14" lengthAdjust="spacing" textLength="171">ChallengingProcessInput</text><path fill="none" d="M998,377.1738 L1008,377.1738 C1023,377.1738 1023,603.127 1038,603.127 L1048,603.127" style="stroke:#181818;stroke-width:1"/><rect width="181" height="36.488" x="1048" y="641.371" fill="#F1F1F1" rx="12.5" ry="12.5" style="stroke:#181818;stroke-width:1.5"/><text x="1058" y="664.906" fill="#000" font-family="sans-serif" font-size="14" lengthAdjust="spacing" textLength="161">CorrectingProcessInput</text><path fill="none" d="M998,377.1738 L1008,377.1738 C1023,377.1738 1023,659.6152 1038,659.6152 L1048,659.6152" style="stroke:#181818;stroke-width:1"/><rect width="175" height="36.488" x="1048" y="697.859" fill="#F1F1F1" rx="12.5" ry="12.5" style="stroke:#181818;stroke-width:1.5"/><text x="1058" y="721.394" fill="#000" font-family="sans-serif" font-size="14" lengthAdjust="spacing" textLength="155">ReversingProcessInput</text><path fill="none" d="M998,377.1738 L1008,377.1738 C1023,377.1738 1023,716.1035 1038,716.1035 L1048,716.1035" style="stroke:#181818;stroke-width:1"/><path fill="none" d="M735,377.1738 L745,377.1738 C760,377.1738 760,377.1738 775,377.1738 L785,377.1738" style="stroke:#181818;stroke-width:1"/><rect width="190" height="36.488" x="350" y="245.953" fill="#F1F1F1" rx="12.5" ry="12.5" style="stroke:#181818;stroke-width:1.5"/><text x="360" y="269.488" fill="#000" font-family="sans-serif" font-size="14" lengthAdjust="spacing" textLength="170">EntityPassiveInvolvement</text><path fill="none" d="M590,377.1738 L580,377.1738 C565,377.1738 565,264.1973 550,264.1973 L540,264.1973" style="stroke:#181818;stroke-width:1"/><rect width="169" height="36.488" x="371" y="302.441" fill="#F1F1F1" rx="12.5" ry="12.5" style="stroke:#181818;stroke-width:1.5"/><text x="381" y="325.977" fill="#000" font-family="sans-serif" font-size="14" lengthAdjust="spacing" textLength="149">EntityNonInvolvement</text><path fill="none" d="M590,377.1738 L580,377.1738 C565,377.1738 565,320.6855 550,320.6855 L540,320.6855" style="stroke:#181818;stroke-width:1"/><rect width="241" height="36.488" x="299" y="358.93" fill="#F1F1F1" rx="12.5" ry="12.5" style="stroke:#181818;stroke-width:1.5"/><text x="309" y="382.465" fill="#000" font-family="sans-serif" font-size="14" lengthAdjust="spacing" textLength="221">EntityNonPermissiveInvolvement</text><rect width="178" height="36.488" x="71" y="20" fill="#F1F1F1" rx="12.5" ry="12.5" style="stroke:#181818;stroke-width:1.5"/><text x="81" y="43.535" fill="#000" font-family="sans-serif" font-size="14" lengthAdjust="spacing" textLength="158">CannotOptInToProcess</text><path fill="none" d="M299,377.1738 L289,377.1738 C274,377.1738 274,38.2441 259,38.2441 L249,38.2441" style="stroke:#181818;stroke-width:1"/><rect width="208" height="36.488" x="41" y="76.488" fill="#F1F1F1" rx="12.5" ry="12.5" style="stroke:#181818;stroke-width:1.5"/><text x="51" y="100.023" fill="#000" font-family="sans-serif" font-size="14" lengthAdjust="spacing" textLength="188">CannotOptOutFromProcess</text><path fill="none" d="M299,377.1738 L289,377.1738 C274,377.1738 274,94.7324 259,94.7324 L249,94.7324" style="stroke:#181818;stroke-width:1"/><rect width="184" height="36.488" x="65" y="132.977" fill="#F1F1F1" rx="12.5" ry="12.5" style="stroke:#181818;stroke-width:1.5"/><text x="75" y="156.512" fill="#000" font-family="sans-serif" font-size="14" lengthAdjust="spacing" textLength="164">CannotObjectToProcess</text><path fill="none" d="M299,377.1738 L289,377.1738 C274,377.1738 274,151.2207 259,151.2207 L249,151.2207" style="stroke:#181818;stroke-width:1"/><rect width="222" height="36.488" x="27" y="189.465" fill="#F1F1F1" rx="12.5" ry="12.5" style="stroke:#181818;stroke-width:1.5"/><text x="37" y="213" fill="#000" font-family="sans-serif" font-size="14" lengthAdjust="spacing" textLength="202">CannotWithdrawFromProcess</text><path fill="none" d="M299,377.1738 L289,377.1738 C274,377.1738 274,207.709 259,207.709 L249,207.709" style="stroke:#181818;stroke-width:1"/><rect width="191" height="36.488" x="58" y="245.953" fill="#F1F1F1" rx="12.5" ry="12.5" style="stroke:#181818;stroke-width:1.5"/><text x="68" y="269.488" fill="#000" font-family="sans-serif" font-size="14" lengthAdjust="spacing" textLength="171">CannotChallengeProcess</text><path fill="none" d="M299,377.1738 L289,377.1738 C274,377.1738 274,264.1973 259,264.1973 L249,264.1973" style="stroke:#181818;stroke-width:1"/><rect width="239" height="36.488" x="10" y="302.441" fill="#F1F1F1" rx="12.5" ry="12.5" style="stroke:#181818;stroke-width:1.5"/><text x="20" y="325.977" fill="#000" font-family="sans-serif" font-size="14" lengthAdjust="spacing" textLength="219">CannotChallengeProcessOutput</text><path fill="none" d="M299,377.1738 L289,377.1738 C274,377.1738 274,320.6855 259,320.6855 L249,320.6855" style="stroke:#181818;stroke-width:1"/><rect width="173" height="36.488" x="76" y="358.93" fill="#F1F1F1" rx="12.5" ry="12.5" style="stroke:#181818;stroke-width:1.5"/><text x="86" y="382.465" fill="#000" font-family="sans-serif" font-size="14" lengthAdjust="spacing" textLength="153">CannotCorrectProcess</text><path fill="none" d="M299,377.1738 L289,377.1738 C274,377.1738 274,377.1738 259,377.1738 L249,377.1738" style="stroke:#181818;stroke-width:1"/><rect width="221" height="36.488" x="28" y="415.418" fill="#F1F1F1" rx="12.5" ry="12.5" style="stroke:#181818;stroke-width:1.5"/><text x="38" y="438.953" fill="#000" font-family="sans-serif" font-size="14" lengthAdjust="spacing" textLength="201">CannotCorrectProcessOutput</text><path fill="none" d="M299,377.1738 L289,377.1738 C274,377.1738 274,433.6621 259,433.6621 L249,433.6621" style="stroke:#181818;stroke-width:1"/><rect width="220" height="36.488" x="29" y="471.906" fill="#F1F1F1" rx="12.5" ry="12.5" style="stroke:#181818;stroke-width:1.5"/><text x="39" y="495.441" fill="#000" font-family="sans-serif" font-size="14" lengthAdjust="spacing" textLength="200">CannotReverseProcessEffects</text><path fill="none" d="M299,377.1738 L289,377.1738 C274,377.1738 274,490.1504 259,490.1504 L249,490.1504" style="stroke:#181818;stroke-width:1"/><rect width="223" height="36.488" x="26" y="528.394" fill="#F1F1F1" rx="12.5" ry="12.5" style="stroke:#181818;stroke-width:1.5"/><text x="36" y="551.93" fill="#000" font-family="sans-serif" font-size="14" lengthAdjust="spacing" textLength="203">CannotReverseProcessOutput</text><path fill="none" d="M299,377.1738 L289,377.1738 C274,377.1738 274,546.6387 259,546.6387 L249,546.6387" style="stroke:#181818;stroke-width:1"/><rect width="227" height="36.488" x="22" y="584.883" fill="#F1F1F1" rx="12.5" ry="12.5" style="stroke:#181818;stroke-width:1.5"/><text x="32" y="608.418" fill="#000" font-family="sans-serif" font-size="14" lengthAdjust="spacing" textLength="207">CannotChallengeProcessInput</text><path fill="none" d="M299,377.1738 L289,377.1738 C274,377.1738 274,603.127 259,603.127 L249,603.127" style="stroke:#181818;stroke-width:1"/><rect width="209" height="36.488" x="40" y="641.371" fill="#F1F1F1" rx="12.5" ry="12.5" style="stroke:#181818;stroke-width:1.5"/><text x="50" y="664.906" fill="#000" font-family="sans-serif" font-size="14" lengthAdjust="spacing" textLength="189">CannotCorrectProcessInput</text><path fill="none" d="M299,377.1738 L289,377.1738 C274,377.1738 274,659.6152 259,659.6152 L249,659.6152" style="stroke:#181818;stroke-width:1"/><rect width="211" height="36.488" x="38" y="697.859" fill="#F1F1F1" rx="12.5" ry="12.5" style="stroke:#181818;stroke-width:1.5"/><text x="48" y="721.394" fill="#000" font-family="sans-serif" font-size="14" lengthAdjust="spacing" textLength="191">CannotReverseProcessInput</text><path fill="none" d="M299,377.1738 L289,377.1738 C274,377.1738 274,716.1035 259,716.1035 L249,716.1035" style="stroke:#181818;stroke-width:1"/><path fill="none" d="M590,377.1738 L580,377.1738 C565,377.1738 565,377.1738 550,377.1738 L540,377.1738" style="stroke:#181818;stroke-width:1"/></g></svg>