<svg xmlns="http://www.w3.org/2000/svg" xmlns:xlink="http://www.w3.org/1999/xlink" width="580" height="184" contentStyleType="text/css" preserveAspectRatio="none" style="width:580px;height:184px;background:#fff" version="1.1" viewBox="0 0 580 184" zoomAndPan="magnify"><g><g id="cluster_dpv"><path fill="none" d="M217,6.2422 L244,6.2422 A3.75,3.75 0 0 1 246.5,8.7422 L253.5,28.7305 L570.5,28.7305 A2.5,2.5 0 0 1 573,31.2305 L573,141.7422 A2.5,2.5 0 0 1 570.5,144.2422 L217,144.2422 A2.5,2.5 0 0 1 214.5,141.7422 L214.5,8.7422 A2.5,2.5 0 0 1 217,6.2422" style="stroke:#000;stroke-width:1.5"/><line style="stroke:#000;stroke-width:1.5" x1="214.5" x2="253.5" y1="28.73" y2="28.73"/><text x="218.5" y="21.777" fill="#000" font-family="sans-serif" font-size="14" font-weight="bold" lengthAdjust="spacing" textLength="26">dpv</text></g><g id="elem_Location"><rect id="Location" width="64" height="26.488" x="233.5" y="41.002" fill="#F1F1F1" codeLine="7" rx="2.5" ry="2.5" style="stroke:#181818;stroke-width:.5"/><text x="236.5" y="59.537" fill="#000" font-family="sans-serif" font-size="14" lengthAdjust="spacing" textLength="58">Location</text></g><g id="elem_Authority"><rect id="Authority" width="70" height="26.488" x="230.5" y="102.002" fill="#F1F1F1" codeLine="8" rx="2.5" ry="2.5" style="stroke:#181818;stroke-width:.5"/><text x="233.5" y="120.537" fill="#000" font-family="sans-serif" font-size="14" lengthAdjust="spacing" textLength="64">Authority</text></g><g id="elem_Law"><rect id="Law" width="32" height="26.488" x="510.5" y="41.002" fill="#F1F1F1" codeLine="9" rx="2.5" ry="2.5" style="stroke:#181818;stroke-width:.5"/><text x="513.5" y="59.537" fill="#000" font-family="sans-serif" font-size="14" lengthAdjust="spacing" textLength="26">Law</text></g><g id="elem_Country"><rect id="Country" width="61" height="26.488" x="496" y="102.002" fill="#F1F1F1" codeLine="10" rx="2.5" ry="2.5" style="stroke:#181818;stroke-width:.5"/><text x="499" y="120.537" fill="#000" font-family="sans-serif" font-size="14" lengthAdjust="spacing" textLength="55">Country</text></g><g id="elem_Thing"><rect id="Thing" width="46" height="26.488" x="7" y="98.002" fill="silver" codeLine="5" rx="2.5" ry="2.5" style="stroke:#181818;stroke-width:.5"/><text x="10" y="116.537" fill="#000" font-family="sans-serif" font-size="14" lengthAdjust="spacing" textLength="40">Thing</text></g><g id="link_Location_Country"><path id="Location-backto-Country" fill="none" d="M315.5202,65.7903 C365.9402,77.6703 446.57,96.6522 495.82,108.2522" codeLine="12" style="stroke:#181818;stroke-width:1"/><polygon fill="none" points="298 61.662 314.144 71.63 316.896 59.95 298 61.662" style="stroke:#181818;stroke-width:1"/></g><g id="link_Thing_Authority"><path id="Thing-Authority" fill="none" d="M53.26,112.7822 C62.46,113.3522 73.24,113.9422 83,114.2422 C134.18,115.8622 193.52,115.8322 230.03,115.5922" codeLine="13" style="stroke:#181818;stroke-width:1"/><polygon fill="#000" points="99.499 105.977 90.502 102.895 90.409 108.772 99.499 105.977" style="stroke:#000;stroke-width:1"/><text x="103.5" y="110.811" fill="#000" font-family="sans-serif" font-size="13" lengthAdjust="spacing" textLength="81">hasAuthority</text></g><g id="link_Authority_Thing"><path id="Authority-Thing" fill="none" d="M233.73,128.9222 C221.07,133.8522 206.1,138.7922 192,141.2422 C144.27,149.5422 129.8,153.7822 83,141.2422 C70.92,138.0122 58.74,131.2222 49.21,124.9122" codeLine="14" style="stroke:#181818;stroke-width:1"/><polygon fill="#000" points="85.001 132.789 93.98 135.924 94.108 130.047 85.001 132.789" style="stroke:#000;stroke-width:1"/><text x="99" y="137.81" fill="#000" font-family="sans-serif" font-size="13" lengthAdjust="spacing" textLength="90">isAuthorityFor</text></g><g id="link_Thing_Location"><path id="Thing-Location" fill="none" d="M35.82,97.6422 C42.98,79.7822 58.29,49.1822 83,36.2422 C130.83,11.2022 195.46,27.5022 233.29,41.1822" codeLine="15" style="stroke:#181818;stroke-width:1"/><polygon fill="#000" points="101.807 13.523 92.303 13.184 93.919 18.835 101.807 13.523" style="stroke:#000;stroke-width:1"/><text x="106" y="19.811" fill="#000" font-family="sans-serif" font-size="13" lengthAdjust="spacing" textLength="76">hasLocation</text></g><g id="link_Thing_Location"><path id="Thing-Location-1" fill="none" d="M53.34,102.8422 C62.46,99.5922 73.15,95.9922 83,93.2422 C134.99,78.7222 196.65,66.5022 233.07,59.8022" codeLine="16" style="stroke:#181818;stroke-width:1"/><polygon fill="#000" points="92.862 58.733 83.382 57.981 84.751 63.698 92.862 58.733" style="stroke:#000;stroke-width:1"/><text x="97" y="64.811" fill="#000" font-family="sans-serif" font-size="13" lengthAdjust="spacing" textLength="94">hasJurisdiction</text></g><g id="link_Thing_Country"><path id="Thing-Country" fill="none" d="M41.75,124.8722 C51.28,135.8122 66.25,150.4322 83,157.2422 C133.9,177.9522 151.56,161.9122 206.5,163.2422 C252.04,164.3522 263.72,168.2022 309,163.2422 C376.74,155.8322 454.3,135.7222 495.73,124.0222" codeLine="17" style="stroke:#181818;stroke-width:1"/><polygon fill="#000" points="232 154.888 222.949 151.966 222.96 157.844 232 154.888" style="stroke:#000;stroke-width:1"/><text x="236" y="159.81" fill="#000" font-family="sans-serif" font-size="13" lengthAdjust="spacing" textLength="72">hasCountry</text></g><g id="link_Location_Law"><path id="Location-Law" fill="none" d="M298,54.2422 C353.95,54.2422 468.66,54.2422 510.12,54.2422" codeLine="18" style="stroke:#181818;stroke-width:1"/><polygon fill="#000" points="349 45.898 339.955 42.959 339.955 48.836 349 45.898" style="stroke:#000;stroke-width:1"/><text x="353" y="50.81" fill="#000" font-family="sans-serif" font-size="13" lengthAdjust="spacing" textLength="112">hasApplicableLaw</text></g></g></svg>