<svg xmlns="http://www.w3.org/2000/svg" xmlns:xlink="http://www.w3.org/1999/xlink" width="1110" height="268" contentStyleType="text/css" preserveAspectRatio="none" style="width:1110px;height:268px;background:#fff" version="1.1" viewBox="0 0 1110 268" zoomAndPan="magnify"><g><g id="cluster_dpv"><path fill="none" d="M8.5,96.48 L35.5,96.48 A3.75,3.75 0 0 1 38,98.98 L45,118.9683 L1100.5,118.9683 A2.5,2.5 0 0 1 1103,121.4683 L1103,258.96 A2.5,2.5 0 0 1 1100.5,261.46 L8.5,261.46 A2.5,2.5 0 0 1 6,258.96 L6,98.98 A2.5,2.5 0 0 1 8.5,96.48" style="stroke:#000;stroke-width:1.5"/><line style="stroke:#000;stroke-width:1.5" x1="6" x2="45" y1="118.968" y2="118.968"/><text x="10" y="112.015" fill="#000" font-family="sans-serif" font-size="14" font-weight="bold" lengthAdjust="spacing" textLength="26">dpv</text></g><g id="elem_Entity"><rect id="Entity" width="44" height="26.488" x="459" y="131.48" fill="#F1F1F1" codeLine="6" rx="2.5" ry="2.5" style="stroke:#181818;stroke-width:.5"/><text x="462" y="150.015" fill="#000" font-family="sans-serif" font-size="14" lengthAdjust="spacing" textLength="38">Entity</text></g><g id="elem_EntityInvolvement"><rect id="EntityInvolvement" width="127" height="26.488" x="538.5" y="131.48" fill="#F1F1F1" codeLine="7" rx="2.5" ry="2.5" style="stroke:#181818;stroke-width:.5"/><text x="541.5" y="150.015" fill="#000" font-family="sans-serif" font-size="14" lengthAdjust="spacing" textLength="121">EntityInvolvement</text></g><g id="elem_EntityPermissiveInvolvement"><rect id="EntityPermissiveInvolvement" width="199" height="26.488" x="22.5" y="218.97" fill="#F1F1F1" codeLine="8" rx="2.5" ry="2.5" style="stroke:#181818;stroke-width:.5"/><text x="25.5" y="237.505" fill="#000" font-family="sans-serif" font-size="14" lengthAdjust="spacing" textLength="193">EntityPermissiveInvolvement</text></g><g id="elem_EntityNonPermissiveInvolvement"><rect id="EntityNonPermissiveInvolvement" width="227" height="26.488" x="256.5" y="218.97" fill="#F1F1F1" codeLine="9" rx="2.5" ry="2.5" style="stroke:#181818;stroke-width:.5"/><text x="259.5" y="237.505" fill="#000" font-family="sans-serif" font-size="14" lengthAdjust="spacing" textLength="221">EntityNonPermissiveInvolvement</text></g><g id="elem_EntityActiveInvolvement"><rect id="EntityActiveInvolvement" width="168" height="26.488" x="518" y="218.97" fill="#F1F1F1" codeLine="10" rx="2.5" ry="2.5" style="stroke:#181818;stroke-width:.5"/><text x="521" y="237.505" fill="#000" font-family="sans-serif" font-size="14" lengthAdjust="spacing" textLength="162">EntityActiveInvolvement</text></g><g id="elem_EntityPassiveInvolvement"><rect id="EntityPassiveInvolvement" width="176" height="26.488" x="721" y="218.97" fill="#F1F1F1" codeLine="11" rx="2.5" ry="2.5" style="stroke:#181818;stroke-width:.5"/><text x="724" y="237.505" fill="#000" font-family="sans-serif" font-size="14" lengthAdjust="spacing" textLength="170">EntityPassiveInvolvement</text></g><g id="elem_EntityNonInvolvement"><rect id="EntityNonInvolvement" width="155" height="26.488" x="931.5" y="218.97" fill="#F1F1F1" codeLine="12" rx="2.5" ry="2.5" style="stroke:#181818;stroke-width:.5"/><text x="934.5" y="237.505" fill="#000" font-family="sans-serif" font-size="14" lengthAdjust="spacing" textLength="149">EntityNonInvolvement</text></g><g id="elem_Thing"><rect id="Thing" width="46" height="26.488" x="518" y="7" fill="silver" codeLine="4" rx="2.5" ry="2.5" style="stroke:#181818;stroke-width:.5"/><text x="521" y="25.535" fill="#000" font-family="sans-serif" font-size="14" lengthAdjust="spacing" textLength="40">Thing</text></g><g id="link_Thing_EntityInvolvement"><path id="Thing-EntityInvolvement" fill="none" d="M547.3,33.89 C559.05,57.48 584.17,107.93 595.83,131.33" codeLine="15" style="stroke:#181818;stroke-width:1"/><polygon fill="#000" points="576.229 76.611 574.827 67.204 569.566 69.825 576.229 76.611" style="stroke:#000;stroke-width:1"/><text x="583" y="77.048" fill="#000" font-family="sans-serif" font-size="13" lengthAdjust="spacing" textLength="135">hasEntityInvolvement</text></g><g id="link_EntityInvolvement_EntityPermissiveInvolvement"><path id="EntityInvolvement-backto-EntityPermissiveInvolvement" fill="none" d="M520.5389,160.2364 C431.1589,176.1564 286.8,201.87 193.44,218.49" codeLine="16" style="stroke:#181818;stroke-width:1"/><polygon fill="none" points="538.26 157.08 519.487 154.329 521.591 166.143 538.26 157.08" style="stroke:#181818;stroke-width:1"/></g><g id="link_EntityInvolvement_EntityNonPermissiveInvolvement"><path id="EntityInvolvement-backto-EntityNonPermissiveInvolvement" fill="none" d="M550.6305,164.6545 C506.7005,180.8445 448.13,202.43 404.29,218.58" codeLine="17" style="stroke:#181818;stroke-width:1"/><polygon fill="none" points="567.52 158.43 548.556 159.025 552.705 170.284 567.52 158.43" style="stroke:#181818;stroke-width:1"/></g><g id="link_EntityInvolvement_EntityActiveInvolvement"><path id="EntityInvolvement-backto-EntityActiveInvolvement" fill="none" d="M602,176.34 C602,192.5 602,202.36 602,218.55" codeLine="18" style="stroke:#181818;stroke-width:1"/><polygon fill="none" points="602 158.34 596 176.34 608 176.34 602 158.34" style="stroke:#181818;stroke-width:1"/></g><g id="link_EntityInvolvement_EntityPassiveInvolvement"><path id="EntityInvolvement-backto-EntityPassiveInvolvement" fill="none" d="M649.1777,165.2093 C688.3177,181.3693 739.13,202.36 778.33,218.55" codeLine="19" style="stroke:#181818;stroke-width:1"/><polygon fill="none" points="632.54 158.34 646.888 170.755 651.467 159.663 632.54 158.34" style="stroke:#181818;stroke-width:1"/></g><g id="link_EntityInvolvement_EntityNonInvolvement"><path id="EntityInvolvement-backto-EntityNonInvolvement" fill="none" d="M680.1053,162.1316 C757.0553,178.3016 871.56,202.35 948.51,218.51" codeLine="20" style="stroke:#181818;stroke-width:1"/><polygon fill="none" points="662.49 158.43 678.871 168.003 681.339 156.26 662.49 158.43" style="stroke:#181818;stroke-width:1"/></g><g id="link_Thing_Entity"><path id="Thing-Entity" fill="none" d="M534.8,33.89 C523.25,57.48 498.54,107.93 487.07,131.33" codeLine="22" style="stroke:#181818;stroke-width:1"/><polygon fill="#000" points="521.801 76.47 528.419 69.64 523.14 67.055 521.801 76.47" style="stroke:#000;stroke-width:1"/><text x="390.898" y="54.067" fill="#000" font-family="sans-serif" font-size="13" lengthAdjust="spacing" textLength="97">hasActiveEntity</text><text x="387.398" y="69.377" fill="#000" font-family="sans-serif" font-size="13" lengthAdjust="spacing" textLength="104">hasPassiveEntity</text><text x="358.898" y="84.688" fill="#000" font-family="sans-serif" font-size="13" lengthAdjust="spacing" textLength="161">hasNonInvolvementEntity</text><text x="372.398" y="99.998" fill="#000" font-family="sans-serif" font-size="13" lengthAdjust="spacing" textLength="134">isDeterminedByEntity</text></g></g></svg>