<svg xmlns="http://www.w3.org/2000/svg" xmlns:xlink="http://www.w3.org/1999/xlink" width="849" height="354" contentStyleType="text/css" preserveAspectRatio="none" style="width:849px;height:354px;background:#fff" version="1.1" viewBox="0 0 849 354" zoomAndPan="magnify"><g><g id="cluster_dpv"><path fill="none" d="M318.5,6 L345.5,6 A3.75,3.75 0 0 1 348,8.5 L355,28.4883 L839.5,28.4883 A2.5,2.5 0 0 1 842,30.9883 L842,263.5 A2.5,2.5 0 0 1 839.5,266 L318.5,266 A2.5,2.5 0 0 1 316,263.5 L316,8.5 A2.5,2.5 0 0 1 318.5,6" style="stroke:#000;stroke-width:1.5"/><line style="stroke:#000;stroke-width:1.5" x1="316" x2="355" y1="28.488" y2="28.488"/><text x="320" y="21.535" fill="#000" font-family="sans-serif" font-size="14" font-weight="bold" lengthAdjust="spacing" textLength="26">dpv</text></g><g id="elem_TechnicalOrganisationalMeasure"><rect id="TechnicalOrganisationalMeasure" width="230" height="26.488" x="596" y="162.76" fill="#F1F1F1" codeLine="9" rx="2.5" ry="2.5" style="stroke:#181818;stroke-width:.5"/><text x="599" y="181.295" fill="#000" font-family="sans-serif" font-size="14" lengthAdjust="spacing" textLength="224">TechnicalOrganisationalMeasure</text></g><g id="elem_TechnicalMeasure"><rect id="TechnicalMeasure" width="129" height="26.488" x="350" y="223.76" fill="#F1F1F1" codeLine="10" rx="2.5" ry="2.5" style="stroke:#181818;stroke-width:.5"/><text x="353" y="242.295" fill="#000" font-family="sans-serif" font-size="14" lengthAdjust="spacing" textLength="123">TechnicalMeasure</text></g><g id="elem_OrganisationalMeasure"><rect id="OrganisationalMeasure" width="165" height="26.488" x="332" y="162.76" fill="#F1F1F1" codeLine="11" rx="2.5" ry="2.5" style="stroke:#181818;stroke-width:.5"/><text x="335" y="181.295" fill="#000" font-family="sans-serif" font-size="14" lengthAdjust="spacing" textLength="159">OrganisationalMeasure</text></g><g id="elem_LegalMeasure"><rect id="LegalMeasure" width="100" height="26.488" x="364.5" y="101.76" fill="#F1F1F1" codeLine="12" rx="2.5" ry="2.5" style="stroke:#181818;stroke-width:.5"/><text x="367.5" y="120.295" fill="#000" font-family="sans-serif" font-size="14" lengthAdjust="spacing" textLength="94">LegalMeasure</text></g><g id="elem_PhysicalMeasure"><rect id="PhysicalMeasure" width="118" height="26.488" x="355.5" y="40.76" fill="#F1F1F1" codeLine="13" rx="2.5" ry="2.5" style="stroke:#181818;stroke-width:.5"/><text x="358.5" y="59.295" fill="#000" font-family="sans-serif" font-size="14" lengthAdjust="spacing" textLength="112">PhysicalMeasure</text></g><g id="elem_Thing"><rect id="Thing" width="46" height="26.488" x="7" y="162.76" fill="silver" codeLine="7" rx="2.5" ry="2.5" style="stroke:#181818;stroke-width:.5"/><text x="10" y="181.295" fill="#000" font-family="sans-serif" font-size="14" lengthAdjust="spacing" textLength="40">Thing</text></g><g id="link_TechnicalMeasure_TechnicalOrganisationalMeasure"><path id="TechnicalMeasure-to-TechnicalOrganisationalMeasure" fill="none" d="M479.4,223.77 C527.95,213.71 576.9042,203.5714 626.0442,193.3914" codeLine="16" style="stroke:#181818;stroke-width:1"/><polygon fill="none" points="643.67 189.74 624.827 187.516 627.261 199.267 643.67 189.74" style="stroke:#181818;stroke-width:1"/></g><g id="link_OrganisationalMeasure_TechnicalOrganisationalMeasure"><path id="OrganisationalMeasure-to-TechnicalOrganisationalMeasure" fill="none" d="M497.14,176 C527.61,176 544.8,176 577.67,176" codeLine="17" style="stroke:#181818;stroke-width:1"/><polygon fill="none" points="595.67 176 577.67 170 577.67 182 595.67 176" style="stroke:#181818;stroke-width:1"/></g><g id="link_LegalMeasure_TechnicalOrganisationalMeasure"><path id="LegalMeasure-to-TechnicalOrganisationalMeasure" fill="none" d="M464.79,125.21 C513.83,135.37 571.7846,147.367 626.0646,158.617" codeLine="18" style="stroke:#181818;stroke-width:1"/><polygon fill="none" points="643.69 162.27 627.282 152.742 624.847 164.492 643.69 162.27" style="stroke:#181818;stroke-width:1"/></g><g id="link_PhysicalMeasure_TechnicalOrganisationalMeasure"><path id="PhysicalMeasure-to-TechnicalOrganisationalMeasure" fill="none" d="M473.8,65.7 C493.54,70.43 515.52,76.56 535,84 C592.71,106.05 640.4234,133.2062 672.7834,152.9462" codeLine="19" style="stroke:#181818;stroke-width:1"/><polygon fill="none" points="688.15 162.32 675.908 147.824 669.659 158.068 688.15 162.32" style="stroke:#181818;stroke-width:1"/></g><g id="link_Thing_TechnicalOrganisationalMeasure"><path id="Thing-TechnicalOrganisationalMeasure" fill="none" d="M37.81,189.48 C46.26,204.74 62.14,229.14 83,242 C254.8,347.87 340.98,340.48 535,285 C601.07,266.11 666.47,214.24 695.05,189.49" codeLine="21" style="stroke:#181818;stroke-width:1"/><polygon fill="#000" points="304 276.655 294.955 273.716 294.955 279.594 304 276.655" style="stroke:#000;stroke-width:1"/><text x="308" y="281.568" fill="#000" font-family="sans-serif" font-size="13" lengthAdjust="spacing" textLength="226">hasTechnicalOrganisationalMeasure</text></g><g id="link_Thing_OrganisationalMeasure"><path id="Thing-OrganisationalMeasure" fill="none" d="M53.27,176.52 C62.47,176.72 73.25,176.91 83,177 C167.77,177.82 264.78,177.36 331.67,176.82" codeLine="22" style="stroke:#181818;stroke-width:1"/><polygon fill="#000" points="93 168.661 83.958 165.712 83.952 171.59 93 168.661" style="stroke:#000;stroke-width:1"/><text x="97" y="173.568" fill="#000" font-family="sans-serif" font-size="13" lengthAdjust="spacing" textLength="166">hasOrganisationalMeasure</text></g><g id="link_Thing_TechnicalMeasure"><path id="Thing-TechnicalMeasure" fill="none" d="M52.74,189.62 C61.78,194.65 72.57,199.88 83,203 C172.94,229.91 282.1,236.35 349.69,237.47" codeLine="23" style="stroke:#181818;stroke-width:1"/><polygon fill="#000" points="108.936 195.451 100.474 191.11 99.539 196.913 108.936 195.451" style="stroke:#000;stroke-width:1"/><text x="113" y="199.568" fill="#000" font-family="sans-serif" font-size="13" lengthAdjust="spacing" textLength="134">hasTechnicalMeasure</text></g><g id="link_Thing_LegalMeasure"><path id="Thing-LegalMeasure" fill="none" d="M53.39,166.01 C62.43,162.35 73.05,158.49 83,156 C180.87,131.5 298.88,121.35 364.1,117.37" codeLine="24" style="stroke:#181818;stroke-width:1"/><polygon fill="#000" points="122.44 117.882 113.049 116.377 113.958 122.184 122.44 117.882" style="stroke:#000;stroke-width:1"/><text x="126.5" y="123.568" fill="#000" font-family="sans-serif" font-size="13" lengthAdjust="spacing" textLength="107">hasLegalMeasure</text></g><g id="link_Thing_PhysicalMeasure"><path id="Thing-PhysicalMeasure" fill="none" d="M36.42,162.49 C44.07,145.35 59.73,116.31 83,102 C166.97,50.38 285.16,46.15 355.09,49.14" codeLine="25" style="stroke:#181818;stroke-width:1"/><polygon fill="#000" points="113.211 40.98 103.704 41.242 105.674 46.78 113.211 40.98" style="stroke:#000;stroke-width:1"/><text x="117.5" y="47.568" fill="#000" font-family="sans-serif" font-size="13" lengthAdjust="spacing" textLength="125">hasPhysicalMeasure</text></g></g></svg>